<svg xmlns="http://www.w3.org/2000/svg" xmlns:xlink="http://www.w3.org/1999/xlink" xmlns:inkscape="http://www.inkscape.org/namespaces/inkscape" version="1.1" width="255.1181" height="127.5591" viewBox="0 0 255.1181 127.5591">
<g inkscape:groupmode="layer" inkscape:label="Layer 1">
<path transform="matrix(1,0,0,-1,0,127.5591)" d="M21.2681 104.3331H85.7066 85.7072L85.7543 104.3328H85.7557L85.8019 104.3311H85.8033L85.8498 104.328H85.8506L85.8963 104.3237H85.898L85.9436 104.3181H85.9442L85.9904 104.3118H85.991L86.0363 104.3045H86.0369L86.0817 104.2954H86.0822L86.1276 104.2855H86.1279L86.1727 104.2744H86.1729L86.2163 104.2625H86.2169L86.2603 104.2495H86.2614L86.3042 104.2345H86.305L86.3473 104.2194H86.3476L86.3898 104.2033H86.3904L86.432 104.186H86.4323L86.4737 104.1678 86.5148 104.148H86.5151L86.5553 104.1284H86.5556L86.595 104.1072H86.5956L86.6347 104.0851H86.635L86.6733 104.0621H86.6741L86.7118 104.038H86.7121L86.7489 104.0131H86.7498L86.7864 103.9873 86.8224 103.9609H86.8226L86.8584 103.9337 86.8929 103.9051 86.9272 103.8767H86.9278L86.9607 103.8467H86.961L86.9939 103.8161H86.9941L87.0262 103.7843H87.0265L87.0571 103.7523 87.088 103.7194 87.118 103.6857 87.1466 103.6519 87.1747 103.6171H87.1753L87.2025 103.5811H87.2028L87.2291 103.5451 87.2544 103.5077 87.2793 103.47 87.3034 103.432 87.3261 103.3934 87.3488 103.354 87.3697 103.314 87.3901 103.2732 87.4091 103.2324 87.427 103.1905 87.4449 103.1482 87.4604 103.106 87.4757 103.0626 87.4905 103.0192 87.5035 102.9753 87.5157 102.9305 87.5265 102.8863 87.5364 102.8407 87.5458 102.7953 87.5529 102.7494 87.5591 102.7026 87.5648 102.6558 87.5687 102.6085 87.5724 102.5612 87.5738 102.5135 87.5744 102.4659V89.6394C77.7492 80.8245 69.3303 72.0085 62.0819 63.1933 51.0999 76.7693 37.3689 90.3438 20.02 103.9195 20.1529 104.002 20.2949 104.0754 20.4386 104.1375 20.6677 104.252 20.9239 104.3206 21.1941 104.3317L21.2131 104.3325 21.2202 104.3328 21.2315 104.3331H21.2496ZM87.5744 78.9829V52.7607C83.9271 48.8761 80.6386 44.9566 77.6965 41.0519 74.7369 45.9204 71.4866 50.7883 67.9017 55.6574 73.6719 63.6627 80.13 71.4711 87.5744 78.9829ZM87.5744 43.1249V24.1741 24.1591L87.5741 24.1441 87.5738 24.1291V24.1257L87.5735 24.114 87.5727 24.0987C87.5628 23.8504 87.5038 23.6132 87.4052 23.3977 87.3768 23.3274 87.3451 23.2563 87.3102 23.1874 85.5334 26.9436 83.6124 30.7001 81.5275 34.4568 83.4214 37.3853 85.4266 40.2783 87.5744 43.1249ZM77.0335 22.3055H74.2969C74.6779 22.9944 75.5005 24.1211 75.8889 24.808 76.252 24.12 76.6749 22.9941 77.0335 22.3055ZM66.0192 22.3055H59.3042C57.6193 25.7907 55.6551 29.3587 53.3976 32.9689 56.1645 37.796 59.0706 42.5877 62.1746 47.3213 65.448 42.2334 68.4941 37.0803 71.3852 31.8835 69.3615 28.6452 67.5748 25.4418 66.0192 22.3055ZM51.3544 22.3055H47.518C48.145 23.4828 48.7769 24.6586 49.4164 25.8335 50.074 24.6597 50.7197 23.4836 51.3544 22.3055ZM35.966 22.3055H35.1913C31.3404 30.3154 25.3403 38.3006 19.4009 45.4482V63.267C29.442 54.9672 36.9743 45.7466 43.236 36.1117 40.5717 31.5099 38.1591 26.9073 35.966 22.3055ZM27.6293 22.3055H21.2681C20.2414 22.3055 19.4009 23.1469 19.4009 24.1741V36.9473C22.5901 32.1018 25.8471 27.0765 27.6293 22.3055ZM19.4009 69.9928V94.8951C34.7703 82.8388 46.5849 69.6818 56.3627 55.9225 52.9486 51.3782 49.8263 46.8346 46.967 42.2898 39.8384 51.7153 30.7089 61.1838 19.4009 69.9928" fill-rule="evenodd"/>
<path transform="matrix(1,0,0,-1,0,127.5591)" d="M161.5037 100.1602C162.2035 102.473 163.0877 104.4995 164.1804 106.8922L166.6074 100.6509C168.3717 96.2606 159.9948 95.1724 161.5037 100.1602ZM125.0589 87.2507C127.3073 86.2914 129.0078 85.0184 130.144 83.4307 131.2883 81.843 131.8609 79.9571 131.8609 77.7895 131.8609 74.6138 130.845 72.051 128.8225 70.1084 126.7999 68.1667 124.1237 67.191 120.7794 67.191 118.0553 67.191 115.7743 67.8844 113.9289 69.2785 112.0912 70.6728 110.8502 72.6471 110.1971 75.21L113.9289 77.0562C114.4366 74.9608 115.2666 73.3725 116.4274 72.2928 117.58 71.2128 119.0302 70.6728 120.7794 70.6728 122.8422 70.6728 124.5104 71.2692 125.7922 72.4538 127.0653 73.6469 127.7019 75.1938 127.7019 77.0964 127.7019 78.6436 127.2589 79.9815 126.3643 81.1256 125.4779 82.2699 124.1399 83.2289 122.3425 84.0186L118.1356 85.8163C115.8392 86.775 114.1223 88.0081 113.0017 89.5232 111.8741 91.0304 111.3094 92.844 111.3094 94.9555 111.3094 97.4137 112.2205 99.4448 114.0494 101.0486 115.8795 102.6519 118.2084 103.458 121.045 103.458 123.1169 103.458 124.922 103.0147 126.4368 102.1365 127.9596 101.2496 129.145 99.9522 129.9906 98.2276L126.5902 96.0596C125.8243 97.3973 124.9537 98.3886 123.9951 99.0414 123.0358 99.6939 121.9479 100.0244 120.7392 100.0244 119.1915 100.0244 117.9264 99.5491 116.9427 98.606 115.96 97.6635 115.4682 96.4627 115.4682 94.9958 115.4682 93.7709 115.8469 92.7068 116.6043 91.8119 117.354 90.9096 118.5304 90.1196 120.1187 89.4274ZM148.2531 94.8991 142.7573 82.1812H153.758ZM148.2531 103.9898 163.9769 68.0613H159.5203L155.0307 78.6515H141.5322L137.0432 68.0613H132.5942ZM180.2404 71.93H182.8596C187.1067 71.93 190.0485 72.1157 191.6847 72.4864 193.3206 72.8572 194.6829 73.4854 195.7708 74.3879 197.189 75.5646 198.2693 77.0879 199.0026 78.9494 199.7439 80.8194 200.1144 82.9548 200.1144 85.3651 200.1144 87.783 199.7521 89.9101 199.0182 91.7478 198.2854 93.5773 197.2054 95.0922 195.7708 96.2932 194.6829 97.204 193.3041 97.8486 191.6283 98.2352 189.9519 98.6221 187.0347 98.8155 182.8596 98.8155H180.2404ZM176.082 68.0613V102.636H182.7227C187.6306 102.636 191.088 102.3863 193.0952 101.8942 195.1016 101.3947 196.8667 100.5642 198.3736 99.4042 200.3567 97.8727 201.8633 95.9224 202.8869 93.545 203.9105 91.1673 204.4182 88.4273 204.4182 85.3248 204.4182 82.2376 203.9105 79.5135 202.8951 77.1443 201.8795 74.7751 200.3729 72.8246 198.3736 71.2933 196.8588 70.1325 195.1418 69.3026 193.216 68.8025 191.2819 68.3113 188.2837 68.0613 184.2052 68.0613H182.7227ZM221.222 94.8991 215.7256 82.1812H226.7263ZM221.222 103.9898 236.9455 68.0613H232.4889L227.9999 78.6515H214.5002L210.0112 68.0613H205.5626Z" fill-rule="evenodd"/>
<path transform="matrix(1,0,0,-1,0,127.5591)" d="M120.6201 53.0053C120.8982 54.7469 122.1004 55.4854 123.0214 57.5014 123.9378 55.4939 124.5158 54.3212 124.8758 52.7315 125.5703 49.3526 119.9313 48.6938 120.6201 53.0053ZM111.7964 51.0749C112.4612 53.2718 113.3016 55.1976 114.3388 57.4707L116.6451 51.5409C118.3207 47.3709 110.363 46.3374 111.7964 51.0749ZM129.3454 33.2317C129.3454 29.9971 128.4143 27.3019 126.6007 25.1946 124.6898 22.989 122.0922 21.8619 118.9063 21.8619 115.6232 21.8619 113.0749 22.9399 111.1637 25.0965 109.3501 27.1057 108.419 29.8012 108.419 33.1826 108.419 36.4663 109.3501 39.113 111.2618 41.2203 113.1729 43.4251 115.7703 44.5034 118.9556 44.5034 122.2396 44.5034 124.7879 43.4251 126.699 41.2693 128.4633 39.2111 129.3454 36.5153 129.3454 33.2317ZM125.4249 33.5256C125.4249 35.8291 124.9838 37.7405 124.1016 39.162 122.9743 40.7789 121.3574 41.6123 119.1518 41.6123 116.7996 41.6123 115.0356 40.7299 113.8586 38.9656 112.8787 37.4465 112.3889 35.4376 112.3889 32.9374 112.3889 30.6343 112.8787 28.7232 113.8586 27.3019 115.0356 25.5864 116.7015 24.7535 118.9063 24.7535 123.2683 24.7535 125.4249 27.6939 125.4249 33.5256ZM153.4141 21.8619H131.6551V25.2927H149.7875C149.7875 29.6541 149.0034 33.1826 147.3863 35.8291 145.4261 39.0146 142.3874 40.6809 138.3199 40.9258H136.9964V44.1607C143.9065 44.1607 148.6604 41.4159 151.1597 35.9271 152.6791 32.6435 153.4141 27.9876 153.4141 21.8619ZM168.4168 21.8619H164.5449C162.7804 21.8619 161.31 22.4989 160.0858 23.7246 158.6642 25.0965 157.9776 27.0573 157.9776 29.6541V53.5697H161.5062V31.7123C161.5062 29.4582 161.8492 27.841 162.4867 26.8608 163.0253 26.0274 163.9565 25.5373 165.28 25.3417 165.623 25.2927 166.0147 25.2927 168.4168 25.2927ZM197.0484 21.8619H191.0639C188.0742 21.8619 185.6239 23.1361 183.7613 25.6844 180.7724 23.1361 177.0965 21.8619 172.7354 21.8619H168.4168V25.2927H172.637C174.4016 25.2927 175.9204 25.4883 177.1455 25.9294 178.3709 26.3704 179.8413 27.2038 181.5075 28.3799 178.812 32.4479 175.3328 35.3392 171.0198 37.0054L170.9705 40.877C174.9892 43.4741 179.0572 44.7973 183.2227 44.7973 187.9277 44.7973 192.24 43.2292 196.1116 40.0927 194.8864 37.7405 193.8572 35.9271 192.975 34.702 191.2603 32.3005 189.1035 30.0461 186.5061 28.0366 187.6329 26.6644 188.8092 25.8313 189.9859 25.5373 190.5245 25.3908 191.848 25.2927 193.955 25.2927H197.0484ZM192.1419 39.0146C190.0344 40.0433 188.7602 40.6318 188.4175 40.7789 186.751 41.4159 185.0845 41.7104 183.4186 41.7104 180.527 41.7104 177.4397 40.7789 174.0586 38.9166 176.2631 38.0832 178.1257 36.9561 179.6941 35.6329 181.0664 34.5059 182.5362 32.7909 184.1542 30.5853 187.6822 32.9862 190.3286 35.7803 192.1419 39.0146ZM236.7451 43.0313V30.4872C236.7451 24.7535 234.3433 21.8619 229.4915 21.8619H197.0484V25.2927H201.6065C204.7431 25.2927 206.4583 27.4 206.8013 31.5658V37.9658L210.2318 38.5461V30.4872C210.2318 28.478 209.9375 26.8115 209.3987 25.4883V25.2927H215.8191C218.9551 25.2927 219.9844 26.8115 219.9844 32.0066V40.1958L223.4146 40.7761V30.4872C223.4146 28.3799 223.1206 26.6153 222.484 25.2927H228.3647C232.0401 25.2927 233.2653 26.8115 233.2653 32.0066V42.4429Z" fill-rule="evenodd"/>
</g>
</svg>
